<svg id="Layer_1" data-name="Layer 1" xmlns="http://www.w3.org/2000/svg" viewBox="0 0 512 512"><title>rewind1-glyph</title><path d="M488.67,452.31c13.09,0,23.33-10.63,23.33-24.2V83.89c0-13.57-10.25-24.19-23.34-24.19a25.26,25.26,0,0,0-12.58,3.46L216.19,235.26a23.53,23.53,0,0,0,0,41.47l259.9,172.11a25.24,25.24,0,0,0,12.58,3.46Z" fill="#434040"/><path d="M284.88,452.31c13.09,0,23.33-10.63,23.33-24.2V83.89c0-13.57-10.25-24.19-23.34-24.19a25.26,25.26,0,0,0-12.58,3.46L12.41,235.26a23.53,23.53,0,0,0,0,41.47L272.3,448.85a25.24,25.24,0,0,0,12.58,3.46Z" fill="#434040"/></svg>